<?xml version="1.0" encoding="UTF-8" standalone="no"?>
<!DOCTYPE svg PUBLIC "-//W3C//DTD SVG 1.1//EN"
 "http://www.w3.org/Graphics/SVG/1.1/DTD/svg11.dtd">
<!-- Generated by graphviz version 14.1.4 (0)
 -->
<!-- Title: QDialog_Close_Flow Pages: 1 -->
<svg width="740pt" height="664pt"
 viewBox="0.00 0.00 740.00 664.00" xmlns="http://www.w3.org/2000/svg" xmlns:xlink="http://www.w3.org/1999/xlink">
<g id="graph0" class="graph" transform="scale(1 1) rotate(0) translate(4 659.51)">
<title>QDialog_Close_Flow</title>
<polygon fill="white" stroke="none" points="-4,4 -4,-659.51 735.66,-659.51 735.66,4 -4,4"/>
<!-- act_ok -->
<g id="node1" class="node">
<title>act_ok</title>
<ellipse fill="#e6f2ff" stroke="#4a90e2" stroke-width="2" cx="147.66" cy="-455.5" rx="71.77" ry="20.51"/>
<text xml:space="preserve" text-anchor="middle" x="147.66" y="-452.7" font-family="SimHei" font-size="14.00">点击确定按钮</text>
</g>
<!-- slot_accept -->
<g id="node5" class="node">
<title>slot_accept</title>
<path fill="none" stroke="#f5a623" stroke-width="2" d="M255.16,-369.5C255.16,-369.5 194.16,-369.5 194.16,-369.5 188.16,-369.5 182.16,-363.5 182.16,-357.5 182.16,-357.5 182.16,-345.5 182.16,-345.5 182.16,-339.5 188.16,-333.5 194.16,-333.5 194.16,-333.5 255.16,-333.5 255.16,-333.5 261.16,-333.5 267.16,-339.5 267.16,-345.5 267.16,-345.5 267.16,-357.5 267.16,-357.5 267.16,-363.5 261.16,-369.5 255.16,-369.5"/>
<text xml:space="preserve" text-anchor="middle" x="224.66" y="-348.7" font-family="SimHei" font-size="14.00">accept() 槽</text>
</g>
<!-- act_ok&#45;&gt;slot_accept -->
<g id="edge1" class="edge">
<title>act_ok&#45;&gt;slot_accept</title>
<path fill="none" stroke="black" d="M162.51,-434.83C174.38,-419.11 191.16,-396.89 204.29,-379.49"/>
<polygon fill="black" stroke="black" points="207.01,-381.7 210.24,-371.61 201.42,-377.48 207.01,-381.7"/>
</g>
<!-- act_cancel -->
<g id="node2" class="node">
<title>act_cancel</title>
<ellipse fill="#e6f2ff" stroke="#4a90e2" stroke-width="2" cx="309.66" cy="-455.5" rx="71.77" ry="20.51"/>
<text xml:space="preserve" text-anchor="middle" x="309.66" y="-452.7" font-family="SimHei" font-size="14.00">点击取消按钮</text>
</g>
<!-- slot_reject -->
<g id="node6" class="node">
<title>slot_reject</title>
<path fill="none" stroke="#f5a623" stroke-width="2" d="M470.79,-369.5C470.79,-369.5 416.54,-369.5 416.54,-369.5 410.54,-369.5 404.54,-363.5 404.54,-357.5 404.54,-357.5 404.54,-345.5 404.54,-345.5 404.54,-339.5 410.54,-333.5 416.54,-333.5 416.54,-333.5 470.79,-333.5 470.79,-333.5 476.79,-333.5 482.79,-339.5 482.79,-345.5 482.79,-345.5 482.79,-357.5 482.79,-357.5 482.79,-363.5 476.79,-369.5 470.79,-369.5"/>
<text xml:space="preserve" text-anchor="middle" x="443.66" y="-348.7" font-family="SimHei" font-size="14.00">reject() 槽</text>
</g>
<!-- act_cancel&#45;&gt;slot_reject -->
<g id="edge2" class="edge">
<title>act_cancel&#45;&gt;slot_reject</title>
<path fill="none" stroke="black" d="M334.55,-435.55C356.2,-419.07 387.71,-395.09 411.31,-377.12"/>
<polygon fill="black" stroke="black" points="413.21,-380.08 419.05,-371.24 408.97,-374.51 413.21,-380.08"/>
</g>
<!-- act_x -->
<g id="node3" class="node">
<title>act_x</title>
<ellipse fill="#e6f2ff" stroke="#4a90e2" stroke-width="2" cx="628.66" cy="-635.01" rx="69.65" ry="20.51"/>
<text xml:space="preserve" text-anchor="middle" x="628.66" y="-632.21" font-family="SimHei" font-size="14.00">点击右上角 X</text>
</g>
<!-- slot_close -->
<g id="node7" class="node">
<title>slot_close</title>
<path fill="none" stroke="#f5a623" stroke-width="2" d="M661.79,-577.5C661.79,-577.5 595.54,-577.5 595.54,-577.5 589.54,-577.5 583.54,-571.5 583.54,-565.5 583.54,-565.5 583.54,-553.5 583.54,-553.5 583.54,-547.5 589.54,-541.5 595.54,-541.5 595.54,-541.5 661.79,-541.5 661.79,-541.5 667.79,-541.5 673.79,-547.5 673.79,-553.5 673.79,-553.5 673.79,-565.5 673.79,-565.5 673.79,-571.5 667.79,-577.5 661.79,-577.5"/>
<text xml:space="preserve" text-anchor="middle" x="628.66" y="-556.7" font-family="SimHei" font-size="14.00">close() 函数</text>
</g>
<!-- act_x&#45;&gt;slot_close -->
<g id="edge4" class="edge">
<title>act_x&#45;&gt;slot_close</title>
<path fill="none" stroke="black" d="M628.66,-613.53C628.66,-606.2 628.66,-597.78 628.66,-589.84"/>
<polygon fill="black" stroke="black" points="632.16,-589.88 628.66,-579.88 625.16,-589.88 632.16,-589.88"/>
</g>
<!-- act_esc -->
<g id="node4" class="node">
<title>act_esc</title>
<ellipse fill="#e6f2ff" stroke="#4a90e2" stroke-width="2" cx="453.66" cy="-455.5" rx="53.74" ry="20.51"/>
<text xml:space="preserve" text-anchor="middle" x="453.66" y="-452.7" font-family="SimHei" font-size="14.00">按 ESC 键</text>
</g>
<!-- act_esc&#45;&gt;slot_reject -->
<g id="edge3" class="edge">
<title>act_esc&#45;&gt;slot_reject</title>
<path fill="none" stroke="black" d="M451.69,-434.35C450.21,-419.3 448.17,-398.53 446.52,-381.67"/>
<polygon fill="black" stroke="black" points="450.01,-381.34 445.55,-371.73 443.04,-382.03 450.01,-381.34"/>
</g>
<!-- slot_done -->
<g id="node8" class="node">
<title>slot_done</title>
<path fill="none" stroke="#f5a623" stroke-width="2" d="M370.41,-281C370.41,-281 250.91,-281 250.91,-281 244.91,-281 238.91,-275 238.91,-269 238.91,-269 238.91,-222 238.91,-222 238.91,-216 244.91,-210 250.91,-210 250.91,-210 370.41,-210 370.41,-210 376.41,-210 382.41,-216 382.41,-222 382.41,-222 382.41,-269 382.41,-269 382.41,-275 376.41,-281 370.41,-281"/>
<text xml:space="preserve" text-anchor="middle" x="310.66" y="-263.7" font-family="SimHei" font-size="14.00">done(int r) 核心方法</text>
<text xml:space="preserve" text-anchor="middle" x="310.66" y="-242.7" font-family="SimHei" font-size="14.00">1. 隐藏窗口</text>
<text xml:space="preserve" text-anchor="middle" x="310.66" y="-221.7" font-family="SimHei" font-size="14.00">2. 设置返回码</text>
</g>
<!-- slot_accept&#45;&gt;slot_done -->
<g id="edge7" class="edge">
<title>slot_accept&#45;&gt;slot_done</title>
<path fill="none" stroke="black" d="M239.25,-332.86C248.87,-321.23 261.91,-305.46 274.22,-290.57"/>
<polygon fill="black" stroke="black" points="276.71,-293.05 280.39,-283.11 271.32,-288.59 276.71,-293.05"/>
<text xml:space="preserve" text-anchor="middle" x="329.58" y="-302.2" font-family="Times,serif" font-size="14.00"> r = QDialog::Accepted</text>
</g>
<!-- slot_reject&#45;&gt;slot_done -->
<g id="edge8" class="edge">
<title>slot_reject&#45;&gt;slot_done</title>
<path fill="none" stroke="black" d="M429.92,-332.58C421.33,-322.07 409.66,-308.95 397.66,-299 393.28,-295.36 388.61,-291.81 383.81,-288.37"/>
<polygon fill="black" stroke="black" points="385.91,-285.57 375.69,-282.78 381.94,-291.33 385.91,-285.57"/>
<text xml:space="preserve" text-anchor="middle" x="476.79" y="-302.2" font-family="Times,serif" font-size="14.00"> r = QDialog::Rejected</text>
</g>
<!-- event_close -->
<g id="node9" class="node">
<title>event_close</title>
<path fill="none" stroke="#9013fe" stroke-width="2" d="M617.11,-481.25C617.11,-481.25 537.21,-458.75 537.21,-458.75 531.44,-457.13 531.44,-453.87 537.21,-452.25 537.21,-452.25 617.11,-429.75 617.11,-429.75 622.89,-428.13 634.44,-428.13 640.21,-429.75 640.21,-429.75 720.11,-452.25 720.11,-452.25 725.89,-453.87 725.89,-457.13 720.11,-458.75 720.11,-458.75 640.21,-481.25 640.21,-481.25 634.44,-482.87 622.89,-482.87 617.11,-481.25"/>
<text xml:space="preserve" text-anchor="middle" x="628.66" y="-452.7" font-family="SimHei" font-size="14.00">closeEvent(e)</text>
</g>
<!-- slot_close&#45;&gt;event_close -->
<g id="edge5" class="edge">
<title>slot_close&#45;&gt;event_close</title>
<path fill="none" stroke="black" d="M628.66,-540.73C628.66,-528.54 628.66,-511.87 628.66,-496.57"/>
<polygon fill="black" stroke="black" points="632.16,-496.75 628.66,-486.75 625.16,-496.75 632.16,-496.75"/>
<text xml:space="preserve" text-anchor="middle" x="675.91" y="-510.2" font-family="Times,serif" font-size="14.00">产生 Close 事件</text>
</g>
<!-- sig_accepted -->
<g id="node10" class="node">
<title>sig_accepted</title>
<path fill="none" stroke="#7ed321" stroke-width="2" d="M293.32,-153C293.32,-153 74.47,-153 74.47,-153 68.47,-153 58.08,-148.92 53.68,-144.84 53.68,-144.84 8.79,-103.16 8.79,-103.16 4.4,-99.08 6,-95 12,-95 12,-95 230.85,-95 230.85,-95 236.85,-95 247.25,-99.08 251.65,-103.16 251.65,-103.16 296.53,-144.84 296.53,-144.84 300.93,-148.92 299.32,-153 293.32,-153"/>
<text xml:space="preserve" text-anchor="middle" x="152.66" y="-121.2" font-family="SimHei" font-size="14.00">发出 accepted() 信号</text>
</g>
<!-- slot_done&#45;&gt;sig_accepted -->
<g id="edge9" class="edge">
<title>slot_done&#45;&gt;sig_accepted</title>
<path fill="none" stroke="black" d="M264.11,-209.29C243.9,-194.01 220.27,-176.13 199.97,-160.78"/>
<polygon fill="black" stroke="black" points="202.2,-158.08 192.12,-154.84 197.98,-163.66 202.2,-158.08"/>
<text xml:space="preserve" text-anchor="middle" x="274.5" y="-178.7" font-family="Times,serif" font-size="14.00">如果 r == 1</text>
</g>
<!-- sig_rejected -->
<g id="node11" class="node">
<title>sig_rejected</title>
<path fill="none" stroke="#7ed321" stroke-width="2" d="M602.33,-153C602.33,-153 394.61,-153 394.61,-153 388.61,-153 378.31,-148.82 374.01,-144.63 374.01,-144.63 331.6,-103.37 331.6,-103.37 327.3,-99.18 329,-95 335,-95 335,-95 542.72,-95 542.72,-95 548.72,-95 559.02,-99.18 563.32,-103.37 563.32,-103.37 605.73,-144.63 605.73,-144.63 610.03,-148.82 608.33,-153 602.33,-153"/>
<text xml:space="preserve" text-anchor="middle" x="468.66" y="-121.2" font-family="SimHei" font-size="14.00">发出 rejected() 信号</text>
</g>
<!-- slot_done&#45;&gt;sig_rejected -->
<g id="edge10" class="edge">
<title>slot_done&#45;&gt;sig_rejected</title>
<path fill="none" stroke="black" d="M357.21,-209.29C377.42,-194.01 401.06,-176.13 421.35,-160.78"/>
<polygon fill="black" stroke="black" points="423.34,-163.66 429.21,-154.84 419.12,-158.08 423.34,-163.66"/>
<text xml:space="preserve" text-anchor="middle" x="437.19" y="-178.7" font-family="Times,serif" font-size="14.00">如果 r == 0</text>
</g>
<!-- event_close&#45;&gt;slot_reject -->
<g id="edge6" class="edge">
<title>event_close&#45;&gt;slot_reject</title>
<path fill="none" stroke="black" d="M593.86,-435.31C563.23,-418.42 518.53,-393.78 485.86,-375.76"/>
<polygon fill="black" stroke="black" points="487.91,-372.9 477.46,-371.13 484.53,-379.03 487.91,-372.9"/>
<text xml:space="preserve" text-anchor="middle" x="570.21" y="-395.2" font-family="Times,serif" font-size="14.00">默认实现</text>
</g>
<!-- sig_finished -->
<g id="node12" class="node">
<title>sig_finished</title>
<path fill="none" stroke="#7ed321" stroke-width="2" d="M447.99,-58C447.99,-58 232.85,-58 232.85,-58 226.85,-58 216.49,-53.88 212.12,-49.77 212.12,-49.77 168.06,-8.23 168.06,-8.23 163.7,-4.12 165.33,0 171.33,0 171.33,0 386.47,0 386.47,0 392.47,0 402.84,-4.12 407.2,-8.23 407.2,-8.23 451.26,-49.77 451.26,-49.77 455.63,-53.88 453.99,-58 447.99,-58"/>
<text xml:space="preserve" text-anchor="middle" x="309.66" y="-26.2" font-family="SimHei" font-size="14.00">发出 finished(r) 信号</text>
</g>
<!-- sig_accepted&#45;&gt;sig_finished -->
<g id="edge11" class="edge">
<title>sig_accepted&#45;&gt;sig_finished</title>
<path fill="none" stroke="black" d="M201.48,-94.08C217.28,-84.72 234.96,-74.25 251.38,-64.52"/>
<polygon fill="black" stroke="black" points="252.75,-67.78 259.57,-59.67 249.19,-61.75 252.75,-67.78"/>
</g>
<!-- sig_rejected&#45;&gt;sig_finished -->
<g id="edge12" class="edge">
<title>sig_rejected&#45;&gt;sig_finished</title>
<path fill="none" stroke="black" d="M419.22,-94.08C403.22,-84.72 385.31,-74.25 368.69,-64.52"/>
<polygon fill="black" stroke="black" points="370.77,-61.69 360.37,-59.66 367.24,-67.73 370.77,-61.69"/>
</g>
</g>
</svg>
