<?xml version="1.0" encoding="UTF-8" standalone="no"?>
<!DOCTYPE svg PUBLIC "-//W3C//DTD SVG 1.1//EN"
 "http://www.w3.org/Graphics/SVG/1.1/DTD/svg11.dtd">
<!-- Generated by graphviz version 14.1.4 (0)
 -->
<!-- Title: QtDialogDecision Pages: 1 -->
<svg width="771pt" height="710pt"
 viewBox="0.00 0.00 771.00 710.00" xmlns="http://www.w3.org/2000/svg" xmlns:xlink="http://www.w3.org/1999/xlink">
<g id="graph0" class="graph" transform="scale(1 1) rotate(0) translate(4 706.02)">
<title>QtDialogDecision</title>
<polygon fill="white" stroke="none" points="-4,4 -4,-706.02 766.5,-706.02 766.5,4 -4,4"/>
<!-- start -->
<g id="node1" class="node">
<title>start</title>
<ellipse fill="#d1c4e9" stroke="black" cx="528.38" cy="-683.63" rx="136.47" ry="18.38"/>
<text xml:space="preserve" text-anchor="middle" x="528.38" y="-681.23" font-family="Microsoft Yahei, sans-serif" font-size="12.00">需求：在QDialog关闭后执行操作</text>
</g>
<!-- check_block -->
<g id="node2" class="node">
<title>check_block</title>
<polygon fill="#fff9c4" stroke="black" points="528.38,-606.25 396.88,-544.25 528.38,-482.25 659.88,-544.25 528.38,-606.25"/>
<text xml:space="preserve" text-anchor="middle" x="528.38" y="-559.85" font-family="Microsoft Yahei, sans-serif" font-size="12.00">1. 是否需要根据条件</text>
<text xml:space="preserve" text-anchor="middle" x="528.38" y="-541.85" font-family="Microsoft Yahei, sans-serif" font-size="12.00">阻止对话框关闭？</text>
<text xml:space="preserve" text-anchor="middle" x="528.38" y="-523.85" font-family="Microsoft Yahei, sans-serif" font-size="12.00">(如：数据校验未通过)</text>
</g>
<!-- start&#45;&gt;check_block -->
<g id="edge1" class="edge">
<title>start&#45;&gt;check_block</title>
<path fill="none" stroke="black" d="M528.38,-664.96C528.38,-652.77 528.38,-635.67 528.38,-618.21"/>
<polygon fill="black" stroke="black" points="531.88,-618.24 528.38,-608.24 524.88,-618.24 531.88,-618.24"/>
</g>
<!-- check_modal -->
<g id="node3" class="node">
<title>check_modal</title>
<polygon fill="#fff9c4" stroke="black" points="381.38,-395 232.63,-369 381.37,-343 530.12,-369 381.38,-395"/>
<text xml:space="preserve" text-anchor="middle" x="381.38" y="-366.6" font-family="Microsoft Yahei, sans-serif" font-size="12.00">2. 对话框是如何显示的？</text>
</g>
<!-- check_block&#45;&gt;check_modal -->
<g id="edge3" class="edge">
<title>check_block&#45;&gt;check_modal</title>
<path fill="none" stroke="black" d="M491.28,-499.53C465.15,-468.73 430.8,-428.25 407.51,-400.8"/>
<polygon fill="black" stroke="black" points="410.18,-398.53 401.04,-393.17 404.84,-403.06 410.18,-398.53"/>
<text xml:space="preserve" text-anchor="middle" x="457.22" y="-442.8" font-family="Microsoft Yahei, sans-serif" font-size="11.00"> 否</text>
</g>
<!-- action_override_block -->
<g id="node5" class="node">
<title>action_override_block</title>
<path fill="#ffcdd2" stroke="black" d="M750.5,-407C750.5,-407 600.25,-407 600.25,-407 594.25,-407 588.25,-401 588.25,-395 588.25,-395 588.25,-343 588.25,-343 588.25,-337 594.25,-331 600.25,-331 600.25,-331 750.5,-331 750.5,-331 756.5,-331 762.5,-337 762.5,-343 762.5,-343 762.5,-395 762.5,-395 762.5,-401 756.5,-407 750.5,-407"/>
<text xml:space="preserve" text-anchor="middle" x="675.38" y="-391.6" font-family="Microsoft Yahei, sans-serif" font-size="12.00">重写 accept() 或 done(int)</text>
<text xml:space="preserve" text-anchor="middle" x="675.38" y="-359.6" font-family="Microsoft Yahei, sans-serif" font-size="12.00">在满足阻止条件时直接 return</text>
<text xml:space="preserve" text-anchor="middle" x="675.38" y="-341.6" font-family="Microsoft Yahei, sans-serif" font-size="12.00">否则调用 QDialog::done(r)</text>
</g>
<!-- check_block&#45;&gt;action_override_block -->
<g id="edge2" class="edge">
<title>check_block&#45;&gt;action_override_block</title>
<path fill="none" stroke="#e53935" stroke-width="2" d="M565.47,-499.53C586.79,-474.4 613.59,-442.82 635.38,-417.13"/>
<polygon fill="#e53935" stroke="#e53935" stroke-width="2" points="638.01,-419.44 641.81,-409.55 632.68,-414.92 638.01,-419.44"/>
<text xml:space="preserve" text-anchor="middle" x="653.49" y="-442.8" font-family="Microsoft Yahei, sans-serif" font-size="11.00" fill="#e53935"> 是 (需要阻止)</text>
</g>
<!-- check_owner -->
<g id="node4" class="node">
<title>check_owner</title>
<polygon fill="#fff9c4" stroke="black" points="243.38,-238.5 118.63,-194.5 243.37,-150.5 368.12,-194.5 243.38,-238.5"/>
<text xml:space="preserve" text-anchor="middle" x="243.38" y="-201.1" font-family="Microsoft Yahei, sans-serif" font-size="12.00">3. 关闭后的业务逻辑</text>
<text xml:space="preserve" text-anchor="middle" x="243.38" y="-183.1" font-family="Microsoft Yahei, sans-serif" font-size="12.00">主要属于谁？</text>
</g>
<!-- check_modal&#45;&gt;check_owner -->
<g id="edge5" class="edge">
<title>check_modal&#45;&gt;check_owner</title>
<path fill="none" stroke="black" d="M363.62,-345.8C341.9,-318.65 304.66,-272.11 277.37,-237.99"/>
<polygon fill="black" stroke="black" points="280.24,-235.97 271.26,-230.35 274.77,-240.35 280.24,-235.97"/>
<text xml:space="preserve" text-anchor="middle" x="355.86" y="-291.55" font-family="Microsoft Yahei, sans-serif" font-size="11.00"> 非模态</text>
<text xml:space="preserve" text-anchor="middle" x="355.86" y="-274.3" font-family="Microsoft Yahei, sans-serif" font-size="11.00">(使用 show) </text>
</g>
<!-- action_exec -->
<g id="node6" class="node">
<title>action_exec</title>
<path fill="#c8e6c9" stroke="black" d="M600.88,-225.5C600.88,-225.5 437.88,-225.5 437.88,-225.5 431.88,-225.5 425.88,-219.5 425.88,-213.5 425.88,-213.5 425.88,-175.5 425.88,-175.5 425.88,-169.5 431.88,-163.5 437.88,-163.5 437.88,-163.5 600.88,-163.5 600.88,-163.5 606.88,-163.5 612.88,-169.5 612.88,-175.5 612.88,-175.5 612.88,-213.5 612.88,-213.5 612.88,-219.5 606.88,-225.5 600.88,-225.5"/>
<text xml:space="preserve" text-anchor="middle" x="519.38" y="-210.1" font-family="Microsoft Yahei, sans-serif" font-size="12.00">最简单方法：</text>
<text xml:space="preserve" text-anchor="middle" x="519.38" y="-192.1" font-family="Microsoft Yahei, sans-serif" font-size="12.00">直接将代码写在 exec() 返回之后</text>
<text xml:space="preserve" text-anchor="middle" x="519.38" y="-174.1" font-family="Microsoft Yahei, sans-serif" font-size="12.00">(无需重写，无需信号槽)</text>
</g>
<!-- check_modal&#45;&gt;action_exec -->
<g id="edge4" class="edge">
<title>check_modal&#45;&gt;action_exec</title>
<path fill="none" stroke="#43a047" stroke-width="2" d="M399.13,-345.8C421.3,-318.09 459.63,-270.18 487.06,-235.9"/>
<polygon fill="#43a047" stroke="#43a047" stroke-width="2" points="489.78,-238.09 493.3,-228.1 484.32,-233.72 489.78,-238.09"/>
<text xml:space="preserve" text-anchor="middle" x="487.14" y="-291.55" font-family="Microsoft Yahei, sans-serif" font-size="11.00" fill="#43a047"> 模态阻塞</text>
<text xml:space="preserve" text-anchor="middle" x="487.14" y="-274.3" font-family="Microsoft Yahei, sans-serif" font-size="11.00" fill="#43a047">(使用 exec) </text>
</g>
<!-- action_signal -->
<g id="node7" class="node">
<title>action_signal</title>
<path fill="#bbdefb" stroke="black" d="M196.75,-58C196.75,-58 12,-58 12,-58 6,-58 0,-52 0,-46 0,-46 0,-12 0,-12 0,-6 6,0 12,0 12,0 196.75,0 196.75,0 202.75,0 208.75,-6 208.75,-12 208.75,-12 208.75,-46 208.75,-46 208.75,-52 202.75,-58 196.75,-58"/>
<text xml:space="preserve" text-anchor="middle" x="104.38" y="-42.6" font-family="Microsoft Yahei, sans-serif" font-size="12.00">关联 finished() 或 accepted() 信号</text>
<text xml:space="preserve" text-anchor="middle" x="104.38" y="-10.6" font-family="Microsoft Yahei, sans-serif" font-size="12.00">优点：低耦合，主窗口更新UI最常用</text>
</g>
<!-- check_owner&#45;&gt;action_signal -->
<g id="edge6" class="edge">
<title>check_owner&#45;&gt;action_signal</title>
<path fill="none" stroke="#1e88e5" d="M213.64,-160.79C202.68,-148.56 190.22,-134.49 179.12,-121.5 164.06,-103.86 147.73,-83.96 134.18,-67.23"/>
<polygon fill="#1e88e5" stroke="#1e88e5" points="136.92,-65.05 127.91,-59.47 131.47,-69.45 136.92,-65.05"/>
<text xml:space="preserve" text-anchor="middle" x="244.75" y="-111.05" font-family="Microsoft Yahei, sans-serif" font-size="11.00" fill="#1e88e5"> 属于调用者(主窗口)</text>
<text xml:space="preserve" text-anchor="middle" x="244.75" y="-93.8" font-family="Microsoft Yahei, sans-serif" font-size="11.00" fill="#1e88e5">(如：获取数据并更新主UI)</text>
</g>
<!-- action_override_done -->
<g id="node8" class="node">
<title>action_override_done</title>
<path fill="#bbdefb" stroke="black" d="M486.38,-58C486.38,-58 278.38,-58 278.38,-58 272.38,-58 266.38,-52 266.38,-46 266.38,-46 266.38,-12 266.38,-12 266.38,-6 272.38,0 278.38,0 278.38,0 486.38,0 486.38,0 492.38,0 498.38,-6 498.38,-12 498.38,-12 498.38,-46 498.38,-46 498.38,-52 492.38,-58 486.38,-58"/>
<text xml:space="preserve" text-anchor="middle" x="382.38" y="-42.6" font-family="Microsoft Yahei, sans-serif" font-size="12.00">重写 done(int) 或在 析构函数 中处理</text>
<text xml:space="preserve" text-anchor="middle" x="382.38" y="-10.6" font-family="Microsoft Yahei, sans-serif" font-size="12.00">优点：高内聚，适合保存对话框内部状态</text>
</g>
<!-- check_owner&#45;&gt;action_override_done -->
<g id="edge7" class="edge">
<title>check_owner&#45;&gt;action_override_done</title>
<path fill="none" stroke="black" d="M279.5,-162.8C292.98,-150.56 308.01,-135.97 320.38,-121.5 334.55,-104.92 348.36,-85.02 359.34,-68.02"/>
<polygon fill="black" stroke="black" points="362.23,-69.98 364.64,-59.67 356.33,-66.23 362.23,-69.98"/>
<text xml:space="preserve" text-anchor="middle" x="423.01" y="-111.05" font-family="Microsoft Yahei, sans-serif" font-size="11.00"> 属于对话框自身</text>
<text xml:space="preserve" text-anchor="middle" x="423.01" y="-93.8" font-family="Microsoft Yahei, sans-serif" font-size="11.00">(如：保存自身配置或清理资源)</text>
</g>
</g>
</svg>
