<?xml version="1.0" encoding="UTF-8" standalone="no"?>
<!DOCTYPE svg PUBLIC "-//W3C//DTD SVG 1.1//EN"
 "http://www.w3.org/Graphics/SVG/1.1/DTD/svg11.dtd">
<!-- Generated by graphviz version 2.40.1 (20161225.0304)
 -->
<!-- Title: cam Pages: 1 -->
<svg width="206pt" height="404pt"
 viewBox="0.00 0.00 206.00 404.00" xmlns="http://www.w3.org/2000/svg" xmlns:xlink="http://www.w3.org/1999/xlink">
<g id="graph0" class="graph" transform="scale(1 1) rotate(0) translate(4 400)">
<title>cam</title>
<polygon fill="#ffffff" stroke="transparent" points="-4,4 -4,-400 202,-400 202,4 -4,4"/>
<!-- a -->
<g id="node1" class="node">
<title>a</title>
<path fill="none" stroke="#c46747" stroke-width="3" d="M42,-396C42,-396 12,-396 12,-396 6,-396 0,-390 0,-384 0,-384 0,-372 0,-372 0,-366 6,-360 12,-360 12,-360 42,-360 42,-360 48,-360 54,-366 54,-372 54,-372 54,-384 54,-384 54,-390 48,-396 42,-396"/>
<text text-anchor="middle" x="27" y="-373.8" font-family="SimHei" font-size="14.00" fill="#000000">a</text>
</g>
<!-- d -->
<g id="node4" class="node">
<title>d</title>
<path fill="none" stroke="#c46747" stroke-width="3" d="M114,-324C114,-324 84,-324 84,-324 78,-324 72,-318 72,-312 72,-312 72,-300 72,-300 72,-294 78,-288 84,-288 84,-288 114,-288 114,-288 120,-288 126,-294 126,-300 126,-300 126,-312 126,-312 126,-318 120,-324 114,-324"/>
<text text-anchor="middle" x="99" y="-301.8" font-family="SimHei" font-size="14.00" fill="#000000">d</text>
</g>
<!-- a&#45;&gt;d -->
<g id="edge1" class="edge">
<title>a&#45;&gt;d</title>
<path fill="none" stroke="#000000" d="M45.1686,-359.8314C53.7152,-351.2848 64.0557,-340.9443 73.3802,-331.6198"/>
<polygon fill="#000000" stroke="#000000" points="75.9905,-333.9592 80.5867,-324.4133 71.0408,-329.0095 75.9905,-333.9592"/>
</g>
<!-- b -->
<g id="node2" class="node">
<title>b</title>
<path fill="none" stroke="#c46747" stroke-width="3" d="M114,-396C114,-396 84,-396 84,-396 78,-396 72,-390 72,-384 72,-384 72,-372 72,-372 72,-366 78,-360 84,-360 84,-360 114,-360 114,-360 120,-360 126,-366 126,-372 126,-372 126,-384 126,-384 126,-390 120,-396 114,-396"/>
<text text-anchor="middle" x="99" y="-373.8" font-family="SimHei" font-size="14.00" fill="#000000">b</text>
</g>
<!-- b&#45;&gt;d -->
<g id="edge2" class="edge">
<title>b&#45;&gt;d</title>
<path fill="none" stroke="#000000" d="M99,-359.8314C99,-352.131 99,-342.9743 99,-334.4166"/>
<polygon fill="#000000" stroke="#000000" points="102.5001,-334.4132 99,-324.4133 95.5001,-334.4133 102.5001,-334.4132"/>
</g>
<!-- c -->
<g id="node3" class="node">
<title>c</title>
<path fill="none" stroke="#c46747" stroke-width="3" d="M186,-396C186,-396 156,-396 156,-396 150,-396 144,-390 144,-384 144,-384 144,-372 144,-372 144,-366 150,-360 156,-360 156,-360 186,-360 186,-360 192,-360 198,-366 198,-372 198,-372 198,-384 198,-384 198,-390 192,-396 186,-396"/>
<text text-anchor="middle" x="171" y="-373.8" font-family="SimHei" font-size="14.00" fill="#000000">c</text>
</g>
<!-- c&#45;&gt;d -->
<g id="edge3" class="edge">
<title>c&#45;&gt;d</title>
<path fill="none" stroke="#000000" d="M152.8314,-359.8314C144.2848,-351.2848 133.9443,-340.9443 124.6198,-331.6198"/>
<polygon fill="#000000" stroke="#000000" points="126.9592,-329.0095 117.4133,-324.4133 122.0095,-333.9592 126.9592,-329.0095"/>
</g>
<!-- e -->
<g id="node5" class="node">
<title>e</title>
<path fill="none" stroke="#c46747" stroke-width="3" d="M114,-252C114,-252 84,-252 84,-252 78,-252 72,-246 72,-240 72,-240 72,-228 72,-228 72,-222 78,-216 84,-216 84,-216 114,-216 114,-216 120,-216 126,-222 126,-228 126,-228 126,-240 126,-240 126,-246 120,-252 114,-252"/>
<text text-anchor="middle" x="99" y="-229.8" font-family="SimHei" font-size="14.00" fill="#000000">e</text>
</g>
<!-- d&#45;&gt;e -->
<g id="edge4" class="edge">
<title>d&#45;&gt;e</title>
<path fill="none" stroke="#000000" d="M93.0476,-287.8314C92.2972,-280.131 92.0763,-270.9743 92.3849,-262.4166"/>
<polygon fill="#000000" stroke="#000000" points="95.8792,-262.6161 93.024,-252.4133 88.8935,-262.1697 95.8792,-262.6161"/>
</g>
<!-- e&#45;&gt;d -->
<g id="edge5" class="edge">
<title>e&#45;&gt;d</title>
<path fill="none" stroke="#000000" d="M104.976,-252.4133C105.7071,-260.0593 105.9203,-269.1084 105.6155,-277.5726"/>
<polygon fill="#000000" stroke="#000000" points="102.1048,-277.6264 104.9524,-287.8314 109.0902,-278.078 102.1048,-277.6264"/>
</g>
<!-- f -->
<g id="node6" class="node">
<title>f</title>
<path fill="none" stroke="#c46747" stroke-width="3" d="M114,-180C114,-180 84,-180 84,-180 78,-180 72,-174 72,-168 72,-168 72,-156 72,-156 72,-150 78,-144 84,-144 84,-144 114,-144 114,-144 120,-144 126,-150 126,-156 126,-156 126,-168 126,-168 126,-174 120,-180 114,-180"/>
<text text-anchor="middle" x="99" y="-157.8" font-family="SimHei" font-size="14.00" fill="#000000">f</text>
</g>
<!-- e&#45;&gt;f -->
<g id="edge6" class="edge">
<title>e&#45;&gt;f</title>
<path fill="none" stroke="#000000" d="M99,-215.8314C99,-208.131 99,-198.9743 99,-190.4166"/>
<polygon fill="#000000" stroke="#000000" points="102.5001,-190.4132 99,-180.4133 95.5001,-190.4133 102.5001,-190.4132"/>
</g>
<!-- g -->
<g id="node7" class="node">
<title>g</title>
<path fill="none" stroke="#c46747" stroke-width="3" d="M87,-108C87,-108 57,-108 57,-108 51,-108 45,-102 45,-96 45,-96 45,-84 45,-84 45,-78 51,-72 57,-72 57,-72 87,-72 87,-72 93,-72 99,-78 99,-84 99,-84 99,-96 99,-96 99,-102 93,-108 87,-108"/>
<text text-anchor="middle" x="72" y="-85.8" font-family="SimHei" font-size="14.00" fill="#000000">g</text>
</g>
<!-- f&#45;&gt;g -->
<g id="edge7" class="edge">
<title>f&#45;&gt;g</title>
<path fill="none" stroke="#000000" d="M92.1868,-143.8314C89.2356,-135.9617 85.7142,-126.5712 82.445,-117.8533"/>
<polygon fill="#000000" stroke="#000000" points="85.6934,-116.5476 78.905,-108.4133 79.1391,-119.0055 85.6934,-116.5476"/>
</g>
<!-- h -->
<g id="node8" class="node">
<title>h</title>
<path fill="none" stroke="#c46747" stroke-width="3" d="M114,-36C114,-36 84,-36 84,-36 78,-36 72,-30 72,-24 72,-24 72,-12 72,-12 72,-6 78,0 84,0 84,0 114,0 114,0 120,0 126,-6 126,-12 126,-12 126,-24 126,-24 126,-30 120,-36 114,-36"/>
<text text-anchor="middle" x="99" y="-13.8" font-family="SimHei" font-size="14.00" fill="#000000">h</text>
</g>
<!-- g&#45;&gt;h -->
<g id="edge8" class="edge">
<title>g&#45;&gt;h</title>
<path fill="none" stroke="#000000" d="M78.8132,-71.8314C81.7644,-63.9617 85.2858,-54.5712 88.555,-45.8533"/>
<polygon fill="#000000" stroke="#000000" points="91.8609,-47.0055 92.095,-36.4133 85.3066,-44.5476 91.8609,-47.0055"/>
</g>
<!-- h&#45;&gt;f -->
<g id="edge9" class="edge">
<title>h&#45;&gt;f</title>
<path fill="none" stroke="#000000" d="M102.8413,-36.3999C104.8166,-46.7975 107.0123,-60.0654 108,-72 109.3197,-87.9455 109.3197,-92.0545 108,-108 107.3055,-116.3915 106.0138,-125.4422 104.6214,-133.6908"/>
<polygon fill="#000000" stroke="#000000" points="101.1647,-133.1388 102.8413,-143.6001 108.0544,-134.3765 101.1647,-133.1388"/>
</g>
</g>
</svg>
